<svg width="32" height="32" viewBox="0 0 32 32" stroke="inherit" fill="none" xmlns="http://www.w3.org/2000/svg">
<path d="M27.0267 24.9067C25.7067 26.12 23.9733 26.7867 22.1733 26.7733H7.38667C1.16 26.32 1.14667 17.2533 7.38667 16.8H7.45334C3.85334 6.74667 16.16 1.78667 21.3333 8.04V8.05333C22.2667 9.2 22.9733 10.72 23.2933 12.6533C25.0667 12.88 26.5067 13.7467 27.5333 14.9733C29.8667 17.7333 30.0667 22.24 27.0267 24.9067Z" stroke="inherit" stroke-width="2" stroke-miterlimit="10" stroke-linecap="round" stroke-linejoin="round"/>
<path d="M9.68004 17.3467C8.9867 17 8.2267 16.8133 7.45337 16.8" stroke="inherit" stroke-width="2" stroke-miterlimit="10" stroke-linecap="round" stroke-linejoin="round"/>
<path d="M21.1333 13.2267C21.8266 12.88 22.5866 12.6933 23.36 12.68" stroke="inherit" stroke-width="2" stroke-miterlimit="10" stroke-linecap="round" stroke-linejoin="round"/>
<path d="M29.2934 11.3333C29.2934 12.8 28.6134 14.12 27.5334 14.9733C26.5067 13.7467 25.0667 12.88 23.2934 12.6533C22.9734 10.72 22.2667 9.19999 21.3334 8.05332V8.03999C22.1734 7.18666 23.3467 6.66666 24.6267 6.66666C27.2 6.66666 29.2934 8.75999 29.2934 11.3333Z" stroke="inherit" stroke-width="2" stroke-miterlimit="10" stroke-linecap="round" stroke-linejoin="round"/>
</svg>
