<svg width="32" height="32" viewBox="0 0 32 32" stroke="inherit" fill="none" xmlns="http://www.w3.org/2000/svg">
<path d="M11.9995 29.3332H19.9995C26.6662 29.3332 29.3329 26.6665 29.3329 19.9998V11.9998C29.3329 5.33317 26.6662 2.6665 19.9995 2.6665H11.9995C5.33285 2.6665 2.66618 5.33317 2.66618 11.9998V19.9998C2.66618 26.6665 5.33285 29.3332 11.9995 29.3332Z" stroke="inherit" stroke-width="2" stroke-linecap="round" stroke-linejoin="round"/>
<path d="M20.6662 12.9998C21.7708 12.9998 22.6662 12.1043 22.6662 10.9998C22.6662 9.89519 21.7708 8.99976 20.6662 8.99976C19.5616 8.99976 18.6662 9.89519 18.6662 10.9998C18.6662 12.1043 19.5616 12.9998 20.6662 12.9998Z" stroke="inherit" stroke-width="2" stroke-miterlimit="10" stroke-linecap="round" stroke-linejoin="round"/>
<path d="M11.3328 12.9998C12.4374 12.9998 13.3328 12.1043 13.3328 10.9998C13.3328 9.89519 12.4374 8.99976 11.3328 8.99976C10.2283 8.99976 9.33284 9.89519 9.33284 10.9998C9.33284 12.1043 10.2283 12.9998 11.3328 12.9998Z" stroke="inherit" stroke-width="2" stroke-miterlimit="10" stroke-linecap="round" stroke-linejoin="round"/>
<path d="M11.1995 17.7332H20.7995C21.4662 17.7332 21.9995 18.2665 21.9995 18.9332C21.9995 22.2532 19.3195 24.9332 15.9995 24.9332C12.6795 24.9332 9.99951 22.2532 9.99951 18.9332C9.99951 18.2665 10.5328 17.7332 11.1995 17.7332Z" stroke="inherit" stroke-width="2" stroke-miterlimit="10" stroke-linecap="round" stroke-linejoin="round"/>
</svg>
