<svg width="32" height="32" viewBox="0 0 32 32" stroke="inherit" fill="none" xmlns="http://www.w3.org/2000/svg">
<path d="M11.9995 29.3332H19.9995C26.6662 29.3332 29.3329 26.6665 29.3329 19.9998V11.9998C29.3329 5.33317 26.6662 2.6665 19.9995 2.6665H11.9995C5.33285 2.6665 2.66618 5.33317 2.66618 11.9998V19.9998C2.66618 26.6665 5.33285 29.3332 11.9995 29.3332Z" stroke="inherit" stroke-width="2" stroke-linecap="round" stroke-linejoin="round"/>
<path d="M21.9995 19.9998C21.9995 23.3198 19.3195 22.933 15.9995 22.933C12.6795 22.933 9.99951 23.3198 9.99951 19.9998" stroke="inherit" stroke-width="2" stroke-miterlimit="10" stroke-linecap="round" stroke-linejoin="round"/>
<path d="M9.33284 11.9998C11.3328 11.9998 12.6662 11.9998 14.1862 11.9998" stroke="inherit" stroke-width="2" stroke-miterlimit="10" stroke-linecap="round" stroke-linejoin="round"/>
<path d="M17.8133 11.9998C19.9995 11.9998 20.6662 11.9998 22.6666 11.9998" stroke="inherit" stroke-width="2" stroke-miterlimit="10" stroke-linecap="round" stroke-linejoin="round"/>
</svg>
