<svg width="32" height="32" viewBox="0 0 32 32" stroke="inherit" fill="none" xmlns="http://www.w3.org/2000/svg">
<path d="M11.9995 29.3332H19.9995C26.6662 29.3332 29.3329 26.6665 29.3329 19.9998V11.9998C29.3329 5.33317 26.6662 2.6665 19.9995 2.6665H11.9995C5.33285 2.6665 2.66618 5.33317 2.66618 11.9998V19.9998C2.66618 26.6665 5.33285 29.3332 11.9995 29.3332Z" stroke="inherit" stroke-width="2" stroke-linecap="round" stroke-linejoin="round"/>
<path d="M9.33284 10.9998C10.6662 12.3331 12.8395 12.3331 14.1862 10.9998" stroke="inherit" stroke-width="2" stroke-miterlimit="10" stroke-linecap="round" stroke-linejoin="round"/>
<path d="M17.8128 10.9998C19.1461 12.3331 21.3195 12.3331 22.6661 10.9998" stroke="inherit" stroke-width="2" stroke-miterlimit="10" stroke-linecap="round" stroke-linejoin="round"/>
<path d="M11.1995 17.333H20.7995C21.4662 17.333 21.9995 17.8663 21.9995 18.533C21.9995 21.853 19.3195 24.533 15.9995 24.533C12.6795 24.533 9.99951 21.853 9.99951 18.533C9.99951 17.8663 10.5328 17.333 11.1995 17.333Z" stroke="inherit" stroke-width="2" stroke-miterlimit="10" stroke-linecap="round" stroke-linejoin="round"/>
</svg>
