<svg width="20" height="20" viewBox="0 0 20 20" fill="none" stroke="inherit" xmlns="http://www.w3.org/2000/svg">
<path d="M18.3333 10C18.3333 5.40002 14.6 1.66669 9.99996 1.66669C5.39996 1.66669 1.66663 5.40002 1.66663 10C1.66663 14.6 5.39996 18.3334 9.99996 18.3334" stroke="inherit" stroke-width="1.5" stroke-linecap="round" stroke-linejoin="round"/>
<path d="M6.66667 2.5H7.5C5.875 7.36667 5.875 12.6333 7.5 17.5H6.66667" stroke="inherit" stroke-width="1.5" stroke-linecap="round" stroke-linejoin="round"/>
<path d="M12.5 2.5C13.3083 4.93333 13.7167 7.46667 13.7167 10" stroke="inherit" stroke-width="1.5" stroke-linecap="round" stroke-linejoin="round"/>
<path d="M2.5 13.3333V12.5C4.93333 13.3083 7.46667 13.7167 10 13.7167" stroke="inherit" stroke-width="1.5" stroke-linecap="round" stroke-linejoin="round"/>
<path d="M2.5 7.5C7.36667 5.875 12.6333 5.875 17.5 7.5" stroke="inherit" stroke-width="1.5" stroke-linecap="round" stroke-linejoin="round"/>
<path d="M16.0083 13.1167L13.0583 16.0667C12.9416 16.1834 12.8333 16.4 12.8083 16.5584L12.6499 17.6833C12.5916 18.0917 12.875 18.375 13.2833 18.3167L14.4083 18.1583C14.5666 18.1333 14.7916 18.025 14.9 17.9083L17.8499 14.9584C18.3583 14.45 18.5999 13.8583 17.8499 13.1083C17.1083 12.3667 16.5166 12.6083 16.0083 13.1167Z" stroke="inherit" stroke-width="1.5" stroke-miterlimit="10" stroke-linecap="round" stroke-linejoin="round"/>
<path d="M15.5833 13.5417C15.8333 14.4417 16.5333 15.1417 17.4333 15.3917" stroke="inherit" stroke-width="1.5" stroke-miterlimit="10" stroke-linecap="round" stroke-linejoin="round"/>
</svg>
