<svg width="20" height="20"  stroke="inherit" viewBox="0 0 20 20" fill="none" xmlns="http://www.w3.org/2000/svg">
<path d="M5.09165 14.5835C3.24999 12.8585 1.66666 10.4002 1.66666 7.2335C1.66666 4.6585 3.74166 2.5752 6.3 2.5752C7.81666 2.5752 9.15833 3.30852 10 4.44185C10.8417 3.30852 12.1917 2.5752 13.7 2.5752C14.6583 2.5752 15.55 2.86683 16.2917 3.37516" stroke="inherit" stroke-width="1.5" stroke-linecap="round" stroke-linejoin="round"/>
<path d="M18.1167 5.8335C18.2583 6.27516 18.3333 6.75016 18.3333 7.24183C18.3333 13.0752 12.9333 16.5168 10.5167 17.3502C10.2333 17.4502 9.76667 17.4502 9.48333 17.3502C8.94167 17.1668 8.25834 16.8502 7.51668 16.4085" stroke="inherit" stroke-width="1.5" stroke-linecap="round" stroke-linejoin="round"/>
<path d="M18.3333 1.6665L1.66666 18.3332" stroke="inherit" stroke-width="1.5" stroke-linecap="round" stroke-linejoin="round"/>
</svg>
