<svg width="14" height="14" viewBox="0 0 14 14" fill="none" stroke="inherit" xmlns="http://www.w3.org/2000/svg">
<path d="M11.3753 7.29171C11.3753 6.48671 12.0287 5.83337 12.8337 5.83337V5.25004C12.8337 2.91671 12.2503 2.33337 9.91699 2.33337H4.08366C1.75033 2.33337 1.16699 2.91671 1.16699 5.25004V5.54171C1.97199 5.54171 2.62533 6.19504 2.62533 7.00004C2.62533 7.80504 1.97199 8.45837 1.16699 8.45837V8.75004C1.16699 11.0834 1.75033 11.6667 4.08366 11.6667H9.91699C12.2503 11.6667 12.8337 11.0834 12.8337 8.75004C12.0287 8.75004 11.3753 8.09671 11.3753 7.29171Z" stroke="inherit" stroke-width="1.5" stroke-linecap="round" stroke-linejoin="round"/>
<path d="M5.83301 2.33337L5.83301 11.6667" stroke="inherit" stroke-width="1.5" stroke-linecap="round" stroke-linejoin="round" stroke-dasharray="5 5"/>
</svg>
