<svg width="20" height="20" viewBox="0 0 20 20" stroke="inherit" fill="none" xmlns="http://www.w3.org/2000/svg">
<path d="M1.66669 12.5H15.4167C17.025 12.5 18.3334 13.8083 18.3334 15.4167C18.3334 17.025 17.025 18.3333 15.4167 18.3333C13.8084 18.3333 12.5 17.025 12.5 15.4167V15" stroke="inherit" stroke-width="1.5" stroke-miterlimit="10" stroke-linecap="round" stroke-linejoin="round"/>
<path d="M1.66669 9.99999H15.4167C17.0167 9.99999 18.3334 8.69166 18.3334 7.08332C18.3334 5.48332 17.0167 4.16666 15.4167 4.16666C13.8167 4.16666 12.5 5.47499 12.5 7.08332V7.49999" stroke="inherit" stroke-width="1.5" stroke-miterlimit="10" stroke-linecap="round" stroke-linejoin="round"/>
<path d="M1.66669 7.5H7.75835C9.00002 7.5 10 6.49166 10 5.25833C10 4.01666 8.99168 3.01666 7.75835 3.01666C6.51668 3.01666 5.51668 4.025 5.51668 5.25833V5.575" stroke="inherit" stroke-width="1.5" stroke-miterlimit="10" stroke-linecap="round" stroke-linejoin="round"/>
</svg>
