<svg width="32" height="32" viewBox="0 0 32 32" fill="none" xmlns="http://www.w3.org/2000/svg">
<g opacity="0.5">
<path d="M12.04 28.9199L15.1466 26.3066C15.6133 25.9066 16.3866 25.9066 16.8533 26.3066L19.96 28.9199C20.68 29.2799 21.56 28.9199 21.8266 28.1466L22.4133 26.3733C22.56 25.9466 22.4133 25.3199 22.0933 24.9999L19.0666 21.9599C18.84 21.7466 18.6666 21.3199 18.6666 21.0133V17.2133C18.6666 16.6533 19.08 16.3866 19.6 16.5999L26.1466 19.4266C27.1733 19.8666 28.0133 19.3199 28.0133 18.1999V16.4799C28.0133 15.5866 27.3466 14.5599 26.52 14.2133L19.0666 10.9999C18.8533 10.9066 18.6666 10.6266 18.6666 10.3866V6.3866C18.6666 5.13326 17.7466 3.65326 16.6266 3.07993C16.2266 2.87993 15.76 2.87993 15.36 3.07993C14.24 3.65326 13.32 5.1466 13.32 6.39993V10.3999C13.32 10.6399 13.1333 10.9199 12.92 11.0133L5.47997 14.2266C4.6533 14.5599 3.98663 15.5866 3.98663 16.4799V18.1999C3.98663 19.3199 4.82663 19.8666 5.8533 19.4266L12.4 16.5999C12.9066 16.3733 13.3333 16.6533 13.3333 17.2133V21.0133C13.3333 21.3199 13.16 21.7466 12.9466 21.9599L9.91997 24.9999C9.59997 25.3199 9.4533 25.9333 9.59997 26.3733L10.1866 28.1466C10.4266 28.9199 11.3066 29.2933 12.04 28.9199Z" stroke="#009974" stroke-width="2" stroke-linecap="round" stroke-linejoin="round"/>
</g>
</svg>
