<svg width="32" height="32" viewBox="0 0 32 32" fill="none" xmlns="http://www.w3.org/2000/svg">
<g opacity="0.5">
<path d="M16.1875 20.0933V17.4799C16.1875 14.1199 18.9075 11.3866 22.2808 11.3866H24.8941" stroke="#009974" stroke-width="2" stroke-linecap="round" stroke-linejoin="round"/>
<path d="M7.49609 11.4H10.1095C13.4695 11.4 16.2028 14.12 16.2028 17.4933V18.36V23" stroke="#009974" stroke-width="2" stroke-linecap="round" stroke-linejoin="round"/>
<path d="M9.52108 9L7.12109 11.4L9.52108 13.8" stroke="#009974" stroke-width="2" stroke-linecap="round" stroke-linejoin="round"/>
<path d="M22.4805 9L24.8805 11.4L22.4805 13.8" stroke="#009974" stroke-width="2" stroke-linecap="round" stroke-linejoin="round"/>
<path d="M12.0013 29.3333H20.0013C26.668 29.3333 29.3346 26.6666 29.3346 20V12C29.3346 5.33329 26.668 2.66663 20.0013 2.66663H12.0013C5.33464 2.66663 2.66797 5.33329 2.66797 12V20C2.66797 26.6666 5.33464 29.3333 12.0013 29.3333Z" stroke="#009974" stroke-width="2" stroke-linecap="round" stroke-linejoin="round"/>
</g>
</svg>
