<svg width="32" height="32" viewBox="0 0 32 32" fill="none" xmlns="http://www.w3.org/2000/svg">
<path d="M14.3319 3.26664C15.2652 2.47997 16.7719 2.47997 17.6785 3.26664L19.7852 5.06664C20.1852 5.39997 20.9452 5.67997 21.4785 5.67997H23.7452C25.1585 5.67997 26.3185 6.83997 26.3185 8.2533V10.52C26.3185 11.0533 26.5985 11.8 26.9319 12.2L28.7319 14.3066C29.5185 15.24 29.5185 16.7466 28.7319 17.6533L26.9319 19.76C26.5985 20.16 26.3185 20.9066 26.3185 21.44V23.7066C26.3185 25.12 25.1585 26.28 23.7452 26.28H21.4785C20.9452 26.28 20.1985 26.56 19.7985 26.8933L17.6919 28.6933C16.7585 29.48 15.2519 29.48 14.3452 28.6933L12.2385 26.8933C11.8385 26.56 11.0785 26.28 10.5585 26.28H8.22521C6.81187 26.28 5.65187 25.12 5.65187 23.7066V21.4266C5.65187 20.9066 5.38521 20.1466 5.05187 19.76L3.25187 17.64C2.47854 16.72 2.47854 15.2266 3.25187 14.3066L5.05187 12.1866C5.38521 11.7866 5.65187 11.04 5.65187 10.52V8.26664C5.65187 6.8533 6.81187 5.6933 8.22521 5.6933H10.5319C11.0652 5.6933 11.8119 5.4133 12.2119 5.07997L14.3319 3.26664Z" stroke="#009974" stroke-width="2" stroke-linecap="round" stroke-linejoin="round"/>
<path d="M11.332 21.2534L15.9987 10.7467L20.6654 21.2534" stroke="#009974" stroke-width="2" stroke-linejoin="bevel"/>
<path d="M18.3346 17.7467H13.668" stroke="#009974" stroke-width="2" stroke-linecap="round" stroke-linejoin="round"/>
</svg>
