<svg width="32" height="32" viewBox="0 0 32 32" fill="none" xmlns="http://www.w3.org/2000/svg">
<path d="M5.67969 14.6933V21.3199C5.67969 23.7466 5.67969 23.7466 7.97302 25.2933L14.2797 28.9333C15.2264 29.4799 16.773 29.4799 17.7197 28.9333L24.0264 25.2933C26.3197 23.7466 26.3197 23.7466 26.3197 21.3199V14.6933C26.3197 12.2666 26.3197 12.2666 24.0264 10.7199L17.7197 7.07992C16.773 6.53326 15.2264 6.53326 14.2797 7.07992L7.97302 10.7199C5.67969 12.2666 5.67969 12.2666 5.67969 14.6933Z" stroke="#009974" stroke-width="2" stroke-linecap="round" stroke-linejoin="round"/>
<path d="M23.3346 10.1732V6.6665C23.3346 3.99984 22.0013 2.6665 19.3346 2.6665H12.668C10.0013 2.6665 8.66797 3.99984 8.66797 6.6665V10.0798" stroke="#009974" stroke-width="2" stroke-linecap="round" stroke-linejoin="round"/>
<path d="M16.8384 14.6533L17.5984 15.8399C17.7184 16.0266 17.9851 16.2133 18.1851 16.2666L19.5451 16.6133C20.3851 16.8266 20.6117 17.5466 20.0651 18.2133L19.1717 19.2933C19.0384 19.4666 18.9317 19.7733 18.9451 19.9866L19.0251 21.3866C19.0784 22.2533 18.4651 22.6933 17.6651 22.3733L16.3584 21.8533C16.1584 21.7733 15.8251 21.7733 15.6251 21.8533L14.3184 22.3733C13.5184 22.6933 12.9051 22.2399 12.9584 21.3866L13.0384 19.9866C13.0517 19.7733 12.9451 19.4533 12.8117 19.2933L11.9184 18.2133C11.3717 17.5466 11.5984 16.8266 12.4384 16.6133L13.7984 16.2666C14.0117 16.2133 14.2784 16.0133 14.3851 15.8399L15.1451 14.6533C15.6251 13.9333 16.3717 13.9333 16.8384 14.6533Z" stroke="#009974" stroke-width="2" stroke-linecap="round" stroke-linejoin="round"/>
</svg>
