<svg width="32" height="32" viewBox="0 0 32 32" fill="none" xmlns="http://www.w3.org/2000/svg">
<path d="M20.7853 16.3466C24.5629 16.3466 27.6253 13.2843 27.6253 9.50663C27.6253 5.729 24.5629 2.66663 20.7853 2.66663C17.0077 2.66663 13.9453 5.729 13.9453 9.50663C13.9453 13.2843 17.0077 16.3466 20.7853 16.3466Z" stroke="#009974" stroke-width="2" stroke-miterlimit="10"/>
<path d="M8.48165 25.92C10.7497 25.92 12.5883 24.0814 12.5883 21.8133C12.5883 19.5453 10.7497 17.7067 8.48165 17.7067C6.2136 17.7067 4.375 19.5453 4.375 21.8133C4.375 24.0814 6.2136 25.92 8.48165 25.92Z" stroke="#009974" stroke-width="2" stroke-miterlimit="10"/>
<path d="M22.1594 29.3334C24.0446 29.3334 25.5728 27.8052 25.5728 25.92C25.5728 24.0349 24.0446 22.5067 22.1594 22.5067C20.2743 22.5067 18.7461 24.0349 18.7461 25.92C18.7461 27.8052 20.2743 29.3334 22.1594 29.3334Z" stroke="#009974" stroke-width="2" stroke-miterlimit="10"/>
</svg>
