<svg width="32" height="32" viewBox="0 0 32 32" fill="none" xmlns="http://www.w3.org/2000/svg">
<g opacity="0.5">
<path d="M29.3333 11.3333C29.3333 16.12 25.4533 20 20.6667 20C20.44 20 20.2 19.9866 19.9733 19.9733C19.64 15.7466 16.2533 12.3599 12.0267 12.0266C12.0133 11.7999 12 11.56 12 11.3333C12 6.54663 15.88 2.66663 20.6667 2.66663C25.4533 2.66663 29.3333 6.54663 29.3333 11.3333Z" stroke="#009974" stroke-width="2" stroke-linecap="round" stroke-linejoin="round"/>
<path d="M20 20.6667C20 25.4533 16.12 29.3333 11.3333 29.3333C6.54663 29.3333 2.66663 25.4533 2.66663 20.6667C2.66663 15.88 6.54663 12 11.3333 12C11.56 12 11.7999 12.0133 12.0266 12.0267C16.2533 12.36 19.64 15.7467 19.9733 19.9733C19.9866 20.2 20 20.44 20 20.6667Z" stroke="#009974" stroke-width="2" stroke-linecap="round" stroke-linejoin="round"/>
<path d="M10.16 19.4934L11.3333 17.3334L12.5067 19.4934L14.6667 20.6667L12.5067 21.84L11.3333 24L10.16 21.84L8 20.6667L10.16 19.4934Z" stroke="#009974" stroke-width="2" stroke-linecap="round" stroke-linejoin="round"/>
</g>
</svg>
