<svg width="14" height="14" viewBox="0 0 14 14" fill="none" xmlns="http://www.w3.org/2000/svg">
<path d="M12.8162 10.6925C12.8162 10.9025 12.7695 11.1183 12.6703 11.3283C12.5712 11.5383 12.4428 11.7366 12.2737 11.9233C11.9878 12.2383 11.6728 12.4658 11.317 12.6116C10.967 12.7575 10.5878 12.8333 10.1795 12.8333C9.58449 12.8333 8.94866 12.6933 8.27783 12.4075C7.60699 12.1216 6.93616 11.7366 6.27116 11.2525C5.60033 10.7625 4.96449 10.22 4.35783 9.61913C3.75699 9.01246 3.21449 8.37663 2.73033 7.71163C2.25199 7.04663 1.86699 6.38163 1.58699 5.72246C1.30699 5.05746 1.16699 4.42163 1.16699 3.81496C1.16699 3.41829 1.23699 3.03913 1.37699 2.68913C1.51699 2.33329 1.73866 2.00663 2.04783 1.71496C2.42116 1.34746 2.82949 1.16663 3.26116 1.16663C3.42449 1.16663 3.58783 1.20163 3.73366 1.27163C3.88533 1.34163 4.01949 1.44663 4.12449 1.59829L5.47783 3.50579C5.58283 3.65163 5.65866 3.78579 5.71116 3.91413C5.76366 4.03663 5.79283 4.15913 5.79283 4.26996C5.79283 4.40996 5.75199 4.54996 5.67033 4.68413C5.59449 4.81829 5.48366 4.95829 5.34366 5.09829L4.90033 5.55913C4.83616 5.62329 4.80699 5.69913 4.80699 5.79246C4.80699 5.83913 4.81283 5.87996 4.82449 5.92663C4.84199 5.97329 4.85949 6.00829 4.87116 6.04329C4.97616 6.23579 5.15699 6.48663 5.41366 6.78996C5.67616 7.09329 5.95616 7.40246 6.25949 7.71163C6.57449 8.02079 6.87783 8.30663 7.18699 8.56913C7.49033 8.82579 7.74116 9.00079 7.93949 9.10579C7.96866 9.11746 8.00366 9.13496 8.04449 9.15246C8.09116 9.16996 8.13783 9.17579 8.19033 9.17579C8.28949 9.17579 8.36533 9.14079 8.42949 9.07663L8.87283 8.63913C9.01866 8.49329 9.15866 8.38246 9.29283 8.31246C9.42699 8.23079 9.56116 8.18996 9.70699 8.18996C9.81782 8.18996 9.93449 8.21329 10.0628 8.26579C10.1912 8.31829 10.3253 8.39413 10.4712 8.49329L12.402 9.86413C12.5537 9.96913 12.6587 10.0916 12.7228 10.2375C12.7812 10.3833 12.8162 10.5291 12.8162 10.6925Z" stroke="#009974" stroke-miterlimit="10"/>
</svg>
