<svg width="32" height="32" viewBox="0 0 32 32" fill="none" xmlns="http://www.w3.org/2000/svg">
<g opacity="0.5">
<path d="M9.01335 29.3332H22.9867C26.6667 29.3332 28.1334 27.0798 28.3067 24.3332L29 13.3198C29.1867 10.4398 26.8934 7.99984 24 7.99984C23.1867 7.99984 22.44 7.53317 22.0667 6.81317L21.1067 4.87984C20.4934 3.6665 18.8934 2.6665 17.5334 2.6665H14.48C13.1067 2.6665 11.5067 3.6665 10.8934 4.87984L9.93335 6.81317C9.56002 7.53317 8.81335 7.99984 8.00002 7.99984C5.10669 7.99984 2.81335 10.4398 3.00002 13.3198L3.69335 24.3332C3.85335 27.0798 5.33335 29.3332 9.01335 29.3332Z" stroke="#009974" stroke-width="2" stroke-linecap="round" stroke-linejoin="round"/>
<path d="M14 10.6665H18" stroke="#009974" stroke-width="2" stroke-linecap="round" stroke-linejoin="round"/>
<path d="M16 24.0002C18.3866 24.0002 20.3333 22.0535 20.3333 19.6668C20.3333 17.2802 18.3866 15.3335 16 15.3335C13.6133 15.3335 11.6666 17.2802 11.6666 19.6668C11.6666 22.0535 13.6133 24.0002 16 24.0002Z" stroke="#009974" stroke-width="2" stroke-linecap="round" stroke-linejoin="round"/>
</g>
</svg>
