<svg width="20" height="20" viewBox="0 0 20 20" fill="none" xmlns="http://www.w3.org/2000/svg">
<path d="M13.3337 10.75V14.25C13.3337 17.1667 12.167 18.3333 9.25033 18.3333H5.75033C2.83366 18.3333 1.66699 17.1667 1.66699 14.25V10.75C1.66699 7.83332 2.83366 6.66666 5.75033 6.66666H9.25033C12.167 6.66666 13.3337 7.83332 13.3337 10.75Z" stroke="#009974" stroke-width="1.5" stroke-linecap="round" stroke-linejoin="round"/>
<path d="M18.3337 5.74999V9.24999C18.3337 12.1667 17.167 13.3333 14.2503 13.3333H13.3337V10.75C13.3337 7.83332 12.167 6.66666 9.25033 6.66666H6.66699V5.74999C6.66699 2.83332 7.83366 1.66666 10.7503 1.66666H14.2503C17.167 1.66666 18.3337 2.83332 18.3337 5.74999Z" stroke="#009974" stroke-width="1.5" stroke-linecap="round" stroke-linejoin="round"/>
</svg>
