<svg width="20" height="20" viewBox="0 0 20 20" fill="none" xmlns="http://www.w3.org/2000/svg">
<path d="M10 9.58333C10.9205 9.58333 11.6667 8.83714 11.6667 7.91667C11.6667 6.99619 10.9205 6.25 10 6.25C9.07954 6.25 8.33334 6.99619 8.33334 7.91667C8.33334 8.83714 9.07954 9.58333 10 9.58333Z" stroke="#009974" stroke-width="1.5" stroke-miterlimit="10"/>
<path d="M8.33334 11.25C9.41668 11.75 10.5833 11.75 11.6667 11.25" stroke="#009974" stroke-width="1.5" stroke-miterlimit="10" stroke-linecap="round" stroke-linejoin="round"/>
<path d="M8.33334 13.7498L10 11.6665L11.6667 13.7498" stroke="#009974" stroke-width="1.5" stroke-miterlimit="10" stroke-linecap="round" stroke-linejoin="round"/>
<path d="M9.99999 18.3332C14.6024 18.3332 18.3333 14.6022 18.3333 9.99984C18.3333 5.39746 14.6024 1.6665 9.99999 1.6665C5.39762 1.6665 1.66666 5.39746 1.66666 9.99984C1.66666 14.6022 5.39762 18.3332 9.99999 18.3332Z" stroke="#009974" stroke-width="1.5" stroke-miterlimit="10"/>
</svg>
