<svg width="14" height="14" viewBox="0 0 14 14" fill="none" xmlns="http://www.w3.org/2000/svg">
<path d="M6.99935 12.8334C10.221 12.8334 12.8327 10.2217 12.8327 7.00008C12.8327 3.77842 10.221 1.16675 6.99935 1.16675C3.77769 1.16675 1.16602 3.77842 1.16602 7.00008C1.16602 10.2217 3.77769 12.8334 6.99935 12.8334Z" stroke="#009974" stroke-linecap="round" stroke-linejoin="round"/>
<path d="M4.66628 1.75H5.24961C4.11211 5.15667 4.11211 8.84333 5.24961 12.25H4.66628" stroke="#009974" stroke-linecap="round" stroke-linejoin="round"/>
<path d="M8.75 1.75C9.8875 5.15667 9.8875 8.84333 8.75 12.25" stroke="#009974" stroke-linecap="round" stroke-linejoin="round"/>
<path d="M1.75 9.33333V8.75C5.15667 9.8875 8.84333 9.8875 12.25 8.75V9.33333" stroke="#009974" stroke-linecap="round" stroke-linejoin="round"/>
<path d="M1.75 5.2501C5.15667 4.1126 8.84333 4.1126 12.25 5.2501" stroke="#009974" stroke-linecap="round" stroke-linejoin="round"/>
</svg>
