<svg width="20" height="20" viewBox="0 0 20 20" fill="none" xmlns="http://www.w3.org/2000/svg">
<path d="M7.50001 18.3332H12.5C16.6667 18.3332 18.3333 16.6665 18.3333 12.4998V7.49984C18.3333 3.33317 16.6667 1.6665 12.5 1.6665H7.50001C3.33334 1.6665 1.66667 3.33317 1.66667 7.49984V12.4998C1.66667 16.6665 3.33334 18.3332 7.50001 18.3332Z" stroke="#009974" stroke-width="1.5" stroke-linecap="round" stroke-linejoin="round"/>
<path d="M9.99999 12.9168C11.6108 12.9168 12.9167 11.611 12.9167 10.0002C12.9167 8.38933 11.6108 7.0835 9.99999 7.0835C8.38916 7.0835 7.08333 8.38933 7.08333 10.0002C7.08333 11.611 8.38916 12.9168 9.99999 12.9168Z" stroke="#009974" stroke-width="1.5" stroke-linecap="round" stroke-linejoin="round"/>
<path d="M14.6968 5.83317H14.7064" stroke="#009974" stroke-width="2" stroke-linecap="round" stroke-linejoin="round"/>
</svg>
