<svg width="24" height="10" viewBox="0 0 24 10" fill="none" xmlns="http://www.w3.org/2000/svg">
<path d="M20.3743 0.660114C20.2994 1.02503 20.2058 2.9581 19.1579 4.15148C18.9942 4.33393 18.3672 4.87145 18.1988 4.79254C17.6749 4.55584 17.4409 3.13563 17.3848 2.40579C17.2802 1.61909 17.349 0.817541 17.586 0.0634262C16.1825 -0.30149 13.3754 0.98558 12.6503 1.94718C13.1926 2.34435 13.7127 2.77408 14.2082 3.23425C14.5557 3.62914 14.853 4.0701 15.0924 4.54598C15.2982 4.9109 15.6959 5.81332 15.317 5.98099C14.2707 6.45126 13.1356 6.66052 12 6.59247C10.8629 6.66111 9.72609 6.45184 8.67836 5.98099C8.30409 5.81332 8.67836 4.9109 8.90292 4.54598C9.14568 4.07106 9.44433 3.63033 9.79181 3.23425C10.287 2.78136 10.8072 2.35982 11.3497 1.97184C10.6246 0.98558 7.83157 -0.30149 6.41403 0.0634262C6.64648 0.818523 6.71523 1.61897 6.6152 2.40579C6.55906 3.13563 6.32514 4.55584 5.80117 4.79254C5.63275 4.87145 5.00584 4.33393 4.8421 4.15148C3.79415 2.9581 3.69591 1.02503 3.62573 0.660114C2.09591 1.05462 0.20117 3.61889 0 5.621C3.47134 5.621 4.37427 10 12 10C19.6257 10 20.5099 5.621 24 5.621C23.7988 3.64848 21.9041 1.05462 20.3743 0.660114Z" fill="#009974"/>
</svg>
