<svg width="32" height="32" viewBox="0 0 32 32" fill="none" xmlns="http://www.w3.org/2000/svg">
<g opacity="0.5">
<path d="M3.05334 10.3732V23.3466C3.05334 25.8799 4.85334 26.9199 7.04001 25.6666L10.1733 23.8799C10.8533 23.4932 11.9867 23.4532 12.6933 23.8132L19.6933 27.3199C20.4 27.6666 21.5333 27.6399 22.2133 27.2532L27.9867 23.9465C28.72 23.5199 29.3333 22.4799 29.3333 21.6266V8.65322C29.3333 6.11989 27.5333 5.07989 25.3467 6.33322L22.2133 8.11989C21.5333 8.50655 20.4 8.54655 19.6933 8.18655L12.6933 4.69322C11.9867 4.34655 10.8533 4.37322 10.1733 4.75989L4.40001 8.06655C3.65334 8.49322 3.05334 9.53322 3.05334 10.3732Z" stroke="#009974" stroke-width="2" stroke-linecap="round" stroke-linejoin="round"/>
<path d="M11.4134 5.33325V22.6666" stroke="#009974" stroke-width="2" stroke-linecap="round" stroke-linejoin="round"/>
<path d="M20.9733 8.82666V26.6667" stroke="#009974" stroke-width="2" stroke-linecap="round" stroke-linejoin="round"/>
</g>
</svg>
