<svg width="14" height="14" viewBox="0 0 14 14" fill="none" xmlns="http://www.w3.org/2000/svg">
<path d="M6.42898 11.375H4.37565C4.01398 11.375 3.69315 11.3633 3.40732 11.3225C1.87315 11.1533 1.45898 10.43 1.45898 8.45833V5.54167C1.45898 3.57 1.87315 2.84667 3.40732 2.6775C3.69315 2.63667 4.01398 2.625 4.37565 2.625H6.39398" stroke="#009974" stroke-linecap="round" stroke-linejoin="round"/>
<path d="M8.76172 2.625H9.62505C9.98672 2.625 10.3076 2.63667 10.5934 2.6775C12.1276 2.84667 12.5417 3.57 12.5417 5.54167V8.45833C12.5417 10.43 12.1276 11.1533 10.5934 11.3225C10.3076 11.3633 9.98672 11.375 9.62505 11.375H8.76172" stroke="#009974" stroke-linecap="round" stroke-linejoin="round"/>
<path d="M8.75 1.16675V12.8334" stroke="#009974" stroke-linecap="round" stroke-linejoin="round"/>
<path d="M6.47206 6.99992H6.4773" stroke="#009974" stroke-linecap="round" stroke-linejoin="round"/>
<path d="M4.13807 6.99992H4.14331" stroke="#009974" stroke-linecap="round" stroke-linejoin="round"/>
</svg>
