<svg width="32" height="32" viewBox="0 0 32 32" fill="none" xmlns="http://www.w3.org/2000/svg">
<g opacity="0.5">
<path d="M17.7346 10.8133L19.4946 14.3333C19.7346 14.8133 20.3746 15.2933 20.9079 15.3733L24.0946 15.9066C26.1346 16.2533 26.6146 17.72 25.1479 19.1866L22.6679 21.6666C22.2546 22.08 22.0146 22.8933 22.1479 23.48L22.8546 26.56C23.4146 28.9866 22.1213 29.9333 19.9746 28.6666L16.9879 26.8933C16.4412 26.5733 15.5613 26.5733 15.0146 26.8933L12.0279 28.6666C9.88124 29.9333 8.5879 28.9866 9.1479 26.56L9.85461 23.48C9.98794 22.9066 9.74792 22.0933 9.33459 21.6666L6.85461 19.1866C5.38794 17.72 5.86791 16.24 7.90791 15.9066L11.0946 15.3733C11.6279 15.28 12.2679 14.8133 12.5079 14.3333L14.2679 10.8133C15.2146 8.90663 16.7879 8.90663 17.7346 10.8133Z" stroke="#009974" stroke-width="2" stroke-linecap="round" stroke-linejoin="round"/>
<path d="M8 12.0001V2.66675" stroke="#009974" stroke-width="2" stroke-linecap="round" stroke-linejoin="round"/>
<path d="M24 12.0001V2.66675" stroke="#009974" stroke-width="2" stroke-linecap="round" stroke-linejoin="round"/>
<path d="M16 5.33341V2.66675" stroke="#009974" stroke-width="2" stroke-linecap="round" stroke-linejoin="round"/>
</g>
</svg>
