<svg width="32" height="32" viewBox="0 0 32 32" fill="none" xmlns="http://www.w3.org/2000/svg">
<g opacity="0.5">
<path d="M2.76003 6.13334C3.8267 1.52001 10.7734 1.52001 11.8267 6.13334C12.4534 8.84001 10.7334 11.1333 9.24003 12.56C8.1467 13.6 6.4267 13.5867 5.33337 12.56C3.85337 11.1333 2.13337 8.84001 2.76003 6.13334Z" stroke="#009974" stroke-width="2"/>
<path d="M20.0933 22.1333C21.16 17.52 28.1467 17.52 29.2133 22.1333C29.84 24.84 28.12 27.1333 26.6133 28.56C25.52 29.6 23.7867 29.5867 22.6933 28.56C21.1867 27.1333 19.4667 24.84 20.0933 22.1333Z" stroke="#009974" stroke-width="2"/>
<path d="M16 6.66675H19.5733C22.04 6.66675 23.1867 9.72008 21.3333 11.3467L10.68 20.6667C8.82667 22.2801 9.97334 25.3334 12.4267 25.3334H16" stroke="#009974" stroke-width="2" stroke-linecap="round" stroke-linejoin="round"/>
<path d="M7.31496 7.33341H7.33036" stroke="#009974" stroke-width="2" stroke-linecap="round" stroke-linejoin="round"/>
<path d="M24.6483 23.3334H24.6637" stroke="#009974" stroke-width="2" stroke-linecap="round" stroke-linejoin="round"/>
</g>
</svg>
