<svg width="32" height="32" viewBox="0 0 32 32" fill="none" xmlns="http://www.w3.org/2000/svg">
<g opacity="0.5">
<path d="M23.1333 12.0666L20.0133 22.12C19.2667 24.5066 15.92 24.5466 15.1333 22.1733L14.2 19.4133C13.9467 18.6533 13.3467 18.04 12.5867 17.8L9.81333 16.8666C7.45333 16.08 7.49333 12.7066 9.87999 11.9866L19.9333 8.8533C21.9067 8.2533 23.76 10.1066 23.1333 12.0666Z" stroke="#009974" stroke-width="2" stroke-linecap="round" stroke-linejoin="round"/>
<path d="M12 29.3334H20C26.6667 29.3334 29.3333 26.6667 29.3333 20.0001V12.0001C29.3333 5.33341 26.6667 2.66675 20 2.66675H12C5.33334 2.66675 2.66667 5.33341 2.66667 12.0001V20.0001C2.66667 26.6667 5.33334 29.3334 12 29.3334Z" stroke="#009974" stroke-width="2" stroke-linecap="round" stroke-linejoin="round"/>
</g>
</svg>
