<svg width="20" height="20" viewBox="0 0 20 20" fill="none" xmlns="http://www.w3.org/2000/svg">
<path d="M1.66669 7.50002V5.41669C1.66669 3.34169 3.34169 1.66669 5.41669 1.66669H7.50002" stroke="#213A8F" stroke-width="1.5" stroke-linecap="round" stroke-linejoin="round"/>
<path d="M12.5 1.66669H14.5833C16.6583 1.66669 18.3333 3.34169 18.3333 5.41669V7.50002" stroke="#213A8F" stroke-width="1.5" stroke-linecap="round" stroke-linejoin="round"/>
<path d="M18.3333 13.3333V14.5833C18.3333 16.6583 16.6583 18.3333 14.5833 18.3333H13.3333" stroke="#213A8F" stroke-width="1.5" stroke-linecap="round" stroke-linejoin="round"/>
<path d="M7.50002 18.3333H5.41669C3.34169 18.3333 1.66669 16.6583 1.66669 14.5833V12.5" stroke="#213A8F" stroke-width="1.5" stroke-linecap="round" stroke-linejoin="round"/>
<path d="M7.08333 9.16667C8.23393 9.16667 9.16667 8.23393 9.16667 7.08333C9.16667 5.93274 8.23393 5 7.08333 5C5.93274 5 5 5.93274 5 7.08333C5 8.23393 5.93274 9.16667 7.08333 9.16667Z" stroke="#213A8F" stroke-width="1.5" stroke-linecap="round" stroke-linejoin="round"/>
<path d="M6.25 15C6.94036 15 7.5 14.4404 7.5 13.75C7.5 13.0596 6.94036 12.5 6.25 12.5C5.55964 12.5 5 13.0596 5 13.75C5 14.4404 5.55964 15 6.25 15Z" stroke="#213A8F" stroke-width="1.5" stroke-linecap="round" stroke-linejoin="round"/>
<path d="M13.75 7.5C14.4404 7.5 15 6.94036 15 6.25C15 5.55964 14.4404 5 13.75 5C13.0596 5 12.5 5.55964 12.5 6.25C12.5 6.94036 13.0596 7.5 13.75 7.5Z" stroke="#213A8F" stroke-width="1.5" stroke-linecap="round" stroke-linejoin="round"/>
<path d="M12.9166 15C14.0672 15 15 14.0672 15 12.9166C15 11.7661 14.0672 10.8333 12.9166 10.8333C11.7661 10.8333 10.8333 11.7661 10.8333 12.9166C10.8333 14.0672 11.7661 15 12.9166 15Z" stroke="#213A8F" stroke-width="1.5" stroke-linecap="round" stroke-linejoin="round"/>
</svg>
