<svg width="32" height="32" viewBox="0 0 32 32" fill="none" xmlns="http://www.w3.org/2000/svg">
<path d="M26.0013 16.6666C26.0013 14.8266 27.4946 13.3333 29.3346 13.3333V12C29.3346 6.66665 28.0013 5.33331 22.668 5.33331H9.33464C4.0013 5.33331 2.66797 6.66665 2.66797 12V12.6666C4.50797 12.6666 6.0013 14.16 6.0013 16C6.0013 17.84 4.50797 19.3333 2.66797 19.3333V20C2.66797 25.3333 4.0013 26.6666 9.33464 26.6666H22.668C28.0013 26.6666 29.3346 25.3333 29.3346 20C27.4946 20 26.0013 18.5066 26.0013 16.6666Z" stroke="#009974" stroke-width="2" stroke-linecap="round" stroke-linejoin="round"/>
<path d="M13.332 5.33331L13.332 26.6666" stroke="#009974" stroke-width="2" stroke-linecap="round" stroke-linejoin="round" stroke-dasharray="5 5"/>
</svg>
