<svg width="24" height="24" viewBox="0 0 24 24" fill="none" xmlns="http://www.w3.org/2000/svg">
<path d="M15 22H9C4 22 2 20 2 15V9C2 4 4 2 9 2H15C20 2 22 4 22 9V15C22 20 20 22 15 22Z" stroke="#213A8F" stroke-width="1.5" stroke-linecap="round" stroke-linejoin="round"/>
<mask id="path-2-outside-1_307:15496" maskUnits="userSpaceOnUse" x="5" y="6" width="15" height="13" fill="black">
<rect fill="white" x="5" y="6" width="15" height="13"/>
<path d="M10.4594 17C14.6105 17 16.8806 13.5378 16.8806 10.5355C16.8806 10.4372 16.8786 10.3393 16.8743 10.2418C17.3149 9.92111 17.6979 9.52088 18 9.06529C17.5956 9.24627 17.1605 9.36808 16.704 9.423C17.1699 9.14173 17.5276 8.69677 17.6964 8.16633C17.2604 8.42657 16.7775 8.61572 16.2633 8.71784C15.8515 8.27622 15.2652 8 14.616 8C13.3697 8 12.359 9.0175 12.359 10.2717C12.359 10.45 12.3788 10.6234 12.4175 10.7898C10.5418 10.6948 8.87861 9.79067 7.76549 8.41594C7.57166 8.75169 7.45989 9.14173 7.45989 9.5579C7.45989 10.3462 7.85832 11.042 8.4642 11.4491C8.09393 11.4376 7.74611 11.3353 7.4421 11.165C7.44177 11.1745 7.44176 11.1838 7.44176 11.194C7.44176 12.2943 8.21969 13.213 9.25235 13.4212C9.06273 13.4732 8.86318 13.5011 8.65725 13.5011C8.51207 13.5011 8.37059 13.4867 8.23309 13.4602C8.52041 14.3629 9.35356 15.0198 10.3413 15.0382C9.56891 15.6477 8.59586 16.0107 7.53833 16.0107C7.35639 16.0107 7.17666 16.0003 7 15.9793C7.99881 16.6238 9.1848 16.9999 10.4595 16.9999"/>
</mask>
<path d="M16.8743 10.2418L15.9916 9.02899C15.5844 9.32533 15.3531 9.80623 15.3758 10.3093L16.8743 10.2418ZM18 9.06529L19.2501 9.89423C19.619 9.33789 19.5759 8.60472 19.1443 8.09547C18.7127 7.58623 17.9965 7.42347 17.3873 7.69615L18 9.06529ZM16.704 9.423L15.9288 8.13884C15.3235 8.5042 15.0556 9.24258 15.2856 9.91109C15.5156 10.5796 16.1812 10.9967 16.8832 10.9123L16.704 9.423ZM17.6964 8.16633L19.1258 8.62111C19.3148 8.02714 19.1167 7.3782 18.6283 6.99095C18.1399 6.6037 17.4629 6.55885 16.9277 6.87829L17.6964 8.16633ZM16.2633 8.71784L15.1663 9.74085C15.5205 10.1207 16.0461 10.2903 16.5555 10.1891L16.2633 8.71784ZM12.4175 10.7898L12.3416 12.2879C12.812 12.3117 13.2662 12.1132 13.5683 11.7519C13.8704 11.3906 13.9852 10.9084 13.8785 10.4498L12.4175 10.7898ZM7.76549 8.41594L8.93125 7.47202C8.62035 7.08806 8.14033 6.8818 7.6478 6.92057C7.15528 6.95933 6.71342 7.23813 6.46642 7.666L7.76549 8.41594ZM8.4642 11.4491L8.41755 12.9484C9.08586 12.9692 9.68723 12.5451 9.89207 11.9087C10.0969 11.2722 9.85575 10.577 9.30077 10.2041L8.4642 11.4491ZM7.4421 11.165L8.17521 9.85631C7.71882 9.60064 7.16219 9.60121 6.70631 9.85781C6.25044 10.1144 5.96119 10.59 5.943 11.1128L7.4421 11.165ZM9.25235 13.4212L9.64923 14.8677C10.3193 14.6839 10.7754 14.0639 10.7515 13.3696C10.7275 12.6752 10.2299 12.0881 9.54877 11.9508L9.25235 13.4212ZM8.23309 13.4602L8.51768 11.9874C7.99798 11.887 7.46382 12.0679 7.1121 12.4635C6.76039 12.859 6.6432 13.4107 6.80374 13.9151L8.23309 13.4602ZM10.3413 15.0382L11.2705 16.2157C11.768 15.8232 11.9651 15.1603 11.7629 14.5596C11.5607 13.959 11.0029 13.5502 10.3692 13.5385L10.3413 15.0382ZM7 15.9793L7.17733 14.4898C6.48402 14.4072 5.82543 14.814 5.58878 15.4709C5.35214 16.1278 5.60002 16.8611 6.1867 17.2396L7 15.9793ZM10.4594 18.5C15.62 18.5 18.3806 14.1728 18.3806 10.5355H15.3806C15.3806 12.9028 13.601 15.5 10.4594 15.5V18.5ZM18.3806 10.5355C18.3806 10.417 18.3782 10.2964 18.3727 10.1743L15.3758 10.3093C15.3791 10.3821 15.3806 10.4574 15.3806 10.5355H18.3806ZM17.7569 11.4546C18.3423 11.0286 18.8496 10.4983 19.2501 9.89423L16.7499 8.23636C16.5462 8.54351 16.2875 8.81362 15.9916 9.02899L17.7569 11.4546ZM17.3873 7.69615C17.1206 7.81547 16.8317 7.89682 16.5248 7.93374L16.8832 10.9123C17.4893 10.8393 18.0706 10.6771 18.6127 10.4344L17.3873 7.69615ZM17.4792 10.7072C18.2513 10.2411 18.8449 9.504 19.1258 8.62111L16.267 7.71156C16.2104 7.88954 16.0886 8.04238 15.9288 8.13884L17.4792 10.7072ZM16.9277 6.87829C16.6357 7.05256 16.3135 7.17856 15.9711 7.24658L16.5555 10.1891C17.2414 10.0529 17.885 9.80058 18.4651 9.45438L16.9277 6.87829ZM17.3603 7.69482C16.6777 6.96277 15.6997 6.5 14.616 6.5V9.5C14.8307 9.5 15.0253 9.58966 15.1663 9.74085L17.3603 7.69482ZM14.616 6.5C12.5319 6.5 10.859 8.19841 10.859 10.2717H13.859C13.859 9.8366 14.2074 9.5 14.616 9.5V6.5ZM10.859 10.2717C10.859 10.5615 10.8912 10.8491 10.9566 11.1298L13.8785 10.4498C13.8664 10.3978 13.859 10.3386 13.859 10.2717H10.859ZM12.4934 9.2917C11.0614 9.21916 9.78793 8.53003 8.93125 7.47202L6.59972 9.35987C7.9693 11.0513 10.0223 12.1704 12.3416 12.2879L12.4934 9.2917ZM6.46642 7.666C6.14534 8.22217 5.95989 8.86982 5.95989 9.5579H8.95989C8.95989 9.41364 8.99798 9.28121 9.06455 9.16589L6.46642 7.666ZM5.95989 9.5579C5.95989 10.8621 6.6208 12.0177 7.62763 12.6942L9.30077 10.2041C9.09584 10.0664 8.95989 9.83022 8.95989 9.5579H5.95989ZM8.51084 9.94985C8.38979 9.94609 8.27648 9.91305 8.17521 9.85631L6.70899 12.4736C7.21573 12.7575 7.79808 12.9291 8.41755 12.9484L8.51084 9.94985ZM5.943 11.1128C5.94162 11.1527 5.94176 11.188 5.94176 11.194H8.94176C8.94176 11.1912 8.94176 11.1903 8.94177 11.1897C8.94177 11.1894 8.94177 11.1904 8.94175 11.1923C8.94172 11.1962 8.94161 11.2051 8.94119 11.2171L5.943 11.1128ZM5.94176 11.194C5.94176 13.0151 7.22971 14.5436 8.95592 14.8916L9.54877 11.9508C9.20967 11.8824 8.94176 11.5735 8.94176 11.194H5.94176ZM8.85546 11.9746C8.79321 11.9917 8.72709 12.0011 8.65725 12.0011V15.0011C8.99927 15.0011 9.33225 14.9547 9.64923 14.8677L8.85546 11.9746ZM8.65725 12.0011C8.6117 12.0011 8.56552 11.9967 8.51768 11.9874L7.94849 14.9329C8.17565 14.9768 8.41245 15.0011 8.65725 15.0011V12.0011ZM6.80374 13.9151C7.27918 15.4089 8.66054 16.5072 10.3135 16.5379L10.3692 13.5385C10.0466 13.5325 9.76165 13.3169 9.66244 13.0052L6.80374 13.9151ZM9.41215 13.8607C8.89446 14.2692 8.24624 14.5107 7.53833 14.5107V17.5107C8.94549 17.5107 10.2434 17.0263 11.2705 16.2157L9.41215 13.8607ZM7.53833 14.5107C7.41375 14.5107 7.29329 14.5036 7.17733 14.4898L6.82267 17.4687C7.06004 17.497 7.29902 17.5107 7.53833 17.5107V14.5107ZM6.1867 17.2396C7.41815 18.0343 8.88489 18.4999 10.4595 18.4999V15.4999C9.48471 15.4999 8.57946 15.2133 7.8133 14.7189L6.1867 17.2396Z" fill="#213A8F" mask="url(#path-2-outside-1_307:15496)"/>
</svg>
