<svg width="84" height="47" viewBox="0 0 84 47" fill="none" xmlns="http://www.w3.org/2000/svg">
<path d="M4.44357 40.9531H1.05721V46.8207H1.65236V41.4903H4.44357V40.9531Z" fill="#009974"/>
<path d="M7.7885 44.5826H5.60375L6.20267 42.9637L6.69612 41.6245L7.18581 42.9637L7.7885 44.5826ZM6.36464 40.9531L4.16106 46.8207H4.77128L5.39657 45.1197H7.97684L8.61343 46.8207H9.23873L7.0389 40.9531H6.36464Z" fill="#009974"/>
<path d="M13.2391 43.7282C12.9144 43.9681 12.5129 44.0834 12.109 44.0528H10.8208V41.4901H12.0902C12.5017 41.4536 12.9123 41.5692 13.2429 41.8147C13.4693 42.0831 13.5934 42.4217 13.5934 42.7715C13.5934 43.1212 13.4693 43.4599 13.2429 43.7282H13.2391ZM12.1128 40.953H10.2294V46.8205H10.8208V44.5824H12.0902C12.6651 44.6298 13.2365 44.4576 13.6873 44.1013C14.0199 43.7322 14.2036 43.2549 14.2036 42.7603C14.2036 42.2657 14.0199 41.7883 13.6873 41.4193C13.2334 41.0637 12.6591 40.8942 12.0827 40.9455" fill="#009974"/>
<path d="M17.9325 44.508L16.0529 40.9531H15.2543V46.8207H15.8495V41.6469L16.2299 42.4601L17.6274 45.1011H18.2188L19.6163 42.4601L19.9968 41.6469V46.8207H20.5881V40.9531H19.8122L17.9325 44.508Z" fill="#009974"/>
<path d="M24.242 46.3243C23.9908 46.3262 23.7421 46.2766 23.5112 46.1788C23.2878 46.0822 23.0885 45.9384 22.9273 45.7573C22.7596 45.5552 22.6319 45.3236 22.5507 45.0747C22.4491 44.7782 22.4006 44.4664 22.4075 44.1534V43.6162C22.4023 43.3024 22.4494 42.9898 22.5469 42.6911C22.6272 42.4418 22.755 42.2101 22.9236 42.0085C23.0832 41.8267 23.283 41.6837 23.5074 41.5907C23.7453 41.4901 24.0021 41.4405 24.2608 41.4453C24.5109 41.4447 24.7585 41.4955 24.9878 41.5945C25.2112 41.6911 25.4104 41.8349 25.5716 42.016C25.7393 42.2181 25.8671 42.4497 25.9483 42.6986C26.05 42.9939 26.0997 43.3043 26.0952 43.6162V44.1422C26.0996 44.4575 26.0512 44.7713 25.9521 45.071C25.874 45.3212 25.7459 45.5534 25.5754 45.7536C25.4158 45.9355 25.216 46.0784 24.9916 46.1714C24.7534 46.2709 24.4966 46.3192 24.2382 46.3131L24.242 46.3243ZM25.9935 46.1378C26.2198 45.8895 26.3939 45.5992 26.5058 45.2836C26.6346 44.9168 26.6971 44.5304 26.6904 44.1422V43.605C26.6961 43.2171 26.635 42.8311 26.5096 42.4636C26.4 42.1447 26.2257 41.8515 25.9973 41.6019C25.7804 41.3692 25.5141 41.187 25.2176 41.0685C24.9069 40.9424 24.5739 40.879 24.2382 40.882C23.9008 40.878 23.5661 40.9427 23.255 41.0722C22.9598 41.1946 22.695 41.3792 22.4791 41.6131C22.2542 41.8624 22.0802 42.1525 21.9668 42.4673C21.8404 42.827 21.778 43.2056 21.7822 43.5864V44.1422C21.7756 44.5326 21.8368 44.9212 21.963 45.2911C22.0735 45.6073 22.2478 45.8979 22.4753 46.1453C22.6939 46.377 22.9596 46.5601 23.255 46.6824C23.5662 46.8068 23.8988 46.8701 24.2344 46.8689C24.5692 46.8707 24.9009 46.806 25.21 46.6787C25.5051 46.556 25.7698 46.3715 25.986 46.1378" fill="#009974"/>
<path d="M31.7756 43.5344H28.4759V40.9531H27.8807V46.8207H28.4759V44.0715H31.7756V46.8207H32.367V40.9531H31.7756V43.5344Z" fill="#009974"/>
<path d="M34.8644 45.3099L34.3709 46.1903V40.9531H33.7795V46.8207H34.5932L37.181 42.4601L37.682 41.5723V46.8207H38.2658V40.9531H37.4522L34.8644 45.3099Z" fill="#009974"/>
<path d="M42.8689 43.8847H41.5994C41.196 43.916 40.7948 43.8021 40.4694 43.5639C40.2397 43.3288 40.1113 43.0145 40.1113 42.6873C40.1113 42.3602 40.2397 42.0459 40.4694 41.8108C40.7957 41.5744 41.1962 41.4606 41.5994 41.49H42.8689V43.8847ZM39.9985 41.4191C39.8249 41.5809 39.6888 41.7781 39.5997 41.997C39.5106 42.216 39.4706 42.4516 39.4825 42.6873C39.4694 43.0593 39.5777 43.4256 39.7914 43.7318C40.0273 44.0316 40.3618 44.2402 40.7368 44.3212L39.313 46.8204H39.9458L41.3019 44.4144H41.4412H42.8576V46.8129H43.449V40.9528H41.5881C41.0145 40.9052 40.4435 41.0715 39.9872 41.4191" fill="#009974"/>
<path d="M50.1727 44.5826H47.9917L48.5906 42.9637L49.0803 41.6245L49.5738 42.9637L50.1727 44.5826ZM48.7526 40.9531L46.5528 46.8207H47.1593L47.7883 45.1197H50.3686L51.0052 46.8207H51.6229L49.4231 40.9531H48.7526Z" fill="#009974"/>
<path d="M55.6271 43.7283C55.3022 43.9678 54.9009 44.0831 54.497 44.0528H53.2276V41.4902H54.497C54.9085 41.4537 55.3191 41.5693 55.6497 41.8147C55.8762 42.0831 56.0002 42.4218 56.0002 42.7715C56.0002 43.1213 55.8762 43.4599 55.6497 43.7283H55.6271ZM54.5196 40.9531H52.6588V46.8206H53.2502V44.5825H54.5196C55.0945 44.6298 55.6659 44.4577 56.1167 44.1013C56.4493 43.7323 56.633 43.2549 56.633 42.7603C56.633 42.2657 56.4493 41.7884 56.1167 41.4193C55.6614 41.0665 55.0882 40.8973 54.5121 40.9456" fill="#009974"/>
<path d="M61.7896 40.9531H61.0776L59.1679 43.5344H58.2375V40.9531H57.6423V46.8207H58.2375V44.0715H59.1754L61.2321 46.8207H61.9591L59.6651 43.7955L61.7896 40.9531Z" fill="#009974"/>
<path d="M62.6371 41.4903H64.5846V46.8207H65.1759V41.4903H67.1234V40.9531H62.6371V41.4903Z" fill="#009974"/>
<path d="M69.1914 45.3099L68.7017 46.1903V40.9531H68.1103V46.8207H68.9202L71.5117 42.4601L72.0127 41.5723V46.8207H72.5966V40.9531H71.7829L69.1914 45.3099Z" fill="#009974"/>
<path d="M78.1526 40.9531H77.4407L75.5309 43.5344H74.6005V40.9531H74.0054V46.8207H74.6005V44.0715H75.5385L77.5951 46.8207H78.3221L76.0281 43.7955L78.1526 40.9531Z" fill="#009974"/>
<path d="M80.4353 45.3099L79.9419 46.1903V40.9531H79.3505V46.8207H80.1641L82.7519 42.4601L83.2529 41.5723V46.8207H83.8368V40.9531H83.0231L80.4353 45.3099Z" fill="#009974"/>
<path d="M11.8604 20.7581C11.8593 20.8017 11.8474 20.8444 11.8256 20.8823C11.8038 20.9202 11.7729 20.9522 11.7356 20.9755C11.6984 20.9987 11.6559 21.0125 11.6119 21.0156C11.568 21.0186 11.524 21.0109 11.4838 20.9931C10.6835 20.5903 9.79311 20.3952 8.89596 20.4261C6.80161 20.4261 5.38905 19.169 5.38905 17.2853C5.38905 15.0957 7.15569 14.0028 9.33667 14.0028H9.81129C11.2728 14.0028 11.8793 14.6033 11.8793 15.9723L11.8604 20.7581ZM10.5082 11.2686H8.90726C4.8504 11.2686 1.92358 13.3201 1.92358 16.8451C1.92358 19.5794 3.43031 21.3027 5.78833 22.1494L3.40771 25.238C3.35497 25.3051 3.306 25.3611 3.25327 25.4208L3.04609 25.6558C2.83525 25.8848 2.59605 26.0866 2.33416 26.2563C1.94523 26.4348 1.50552 26.4731 1.09111 26.3645C0.552458 26.2526 0.145642 26.0474 0.0364042 26.3906C-0.15947 26.9949 0.480889 28.2557 0.865104 28.8115C1.01958 29.0018 1.21884 29.1516 1.44542 29.2479C1.67199 29.3441 1.91896 29.3839 2.16466 29.3636C3.98403 29.3636 5.23461 28.9682 7.3704 25.5774L7.44197 25.4655C7.52484 25.335 7.60771 25.197 7.69434 25.0552L9.00896 23.1603L10.0222 23.4513C10.5512 23.6023 11.0163 23.9192 11.3478 24.3544C11.6793 24.7896 11.8592 25.3196 11.8604 25.8647V28.9794C14.7044 28.9794 15.1451 28.9794 15.1451 27.3381V15.7932C15.1451 12.5405 13.8757 11.2835 10.5082 11.2835" fill="#009974"/>
<path d="M75.6967 14.2229H78.2317C79.8891 14.2229 80.5521 14.8496 80.5521 16.4088V28.9832C83.396 28.9832 83.8368 28.9832 83.8368 27.3419V16.0544C83.8368 12.6115 82.7595 11.2686 79.1433 11.2686H73.2746C72.7661 11.2686 72.1144 11.2164 71.4967 11.1978C71.3843 11.1928 71.2734 11.2249 71.1814 11.289C71.0893 11.3531 71.0214 11.4457 70.9882 11.5521C70.7923 12.2086 70.1595 13.9208 70.6115 14.3647C70.9392 14.6892 71.4176 14.1334 72.4346 14.1334L72.4723 14.2229C72.314 17.3351 71.8561 20.4253 71.1049 23.4513C71.071 23.5856 71.0334 23.7162 70.9957 23.843L70.7019 24.589L70.6115 24.824C70.2047 25.9767 69.6622 26.5175 68.9578 26.4429C68.3439 26.3795 68.0048 25.7454 67.8052 25.9804C67.3946 26.4579 67.4059 27.8455 67.4473 28.5281C67.4576 28.6379 67.503 28.7415 67.5768 28.824C67.6507 28.9065 67.7491 28.9636 67.8579 28.9869L67.9408 29.0093C68.6806 29.1832 69.4451 29.2299 70.2009 29.1473C70.3285 29.1465 70.4554 29.1277 70.5776 29.0913C72.461 28.8153 73.6701 27.3941 74.1824 24.7457C75.1354 19.848 75.6891 14.2229 75.6891 14.2229" fill="#009974"/>
<path d="M51.9996 22.3432C52.8563 19.8639 53.8381 17.4288 54.9415 15.047C56.0592 17.5221 57.0351 20.0577 57.8646 22.6416C57.8786 22.6804 57.8798 22.7227 57.868 22.7623C57.8561 22.8018 57.8319 22.8366 57.7987 22.8616C57.7655 22.8866 57.7251 22.9004 57.6835 22.9011C57.6418 22.9018 57.601 22.8893 57.567 22.8654C56.7323 22.2471 55.7202 21.9086 54.6778 21.8993C53.8298 21.8995 52.9992 22.1374 52.2821 22.5856C52.2469 22.6066 52.206 22.616 52.1651 22.6126C52.1242 22.6093 52.0854 22.5933 52.0542 22.5669C52.023 22.5405 52.0009 22.5051 51.9911 22.4656C51.9813 22.4261 51.9843 22.3846 51.9996 22.3469V22.3432ZM49.8186 28.9866C50.6323 28.9866 49.8186 28.5726 50.4703 27.4423C51.0767 26.4501 52.3801 24.6969 54.6778 24.6969C56.9115 24.6969 58.4145 26.562 59.1151 27.5505C59.6651 28.5987 58.9268 28.9866 59.7103 28.9866H63.4959C61.4883 22.8525 59.1495 16.8296 56.4897 10.9438C56.2599 10.4776 52.0561 10.9438 52.6362 11.8428C53.092 12.6224 52.301 13.831 51.8565 14.7076C49.6491 18.9152 47.9164 23.5518 46.1234 28.9903H49.8186V28.9866Z" fill="#009974"/>
<path d="M37.5765 17.7143V28.9831C40.4468 28.9831 40.6954 28.9831 40.6954 27.118V11.2686C39.1887 11.3245 37.6029 11.5147 36.2506 12.1451C34.7857 15.9829 33.1185 19.7418 31.2558 23.4065C29.2878 19.4643 27.5547 15.4114 26.0651 11.2686C24.6563 11.3506 23.0027 11.5707 21.7596 12.119V28.9831H24.8522V17.7404C24.8531 17.693 24.8703 17.6473 24.9009 17.6109C24.9315 17.5745 24.9737 17.5494 25.0206 17.5399C25.0675 17.5304 25.1162 17.5369 25.1589 17.5584C25.2015 17.5799 25.2355 17.6152 25.2552 17.6583C26.5774 20.9893 28.0992 24.2905 29.6473 27.2821C30.7292 27.2639 31.8007 27.0699 32.819 26.7077C34.4333 23.7719 35.8844 20.7509 37.1659 17.6583C37.1822 17.6108 37.2151 17.5707 37.2588 17.5453C37.3025 17.5199 37.3539 17.5109 37.4038 17.5199C37.4536 17.529 37.4984 17.5555 37.5302 17.5946C37.5619 17.6337 37.5783 17.6828 37.5765 17.7329" fill="#009974"/>
<path d="M61.6728 0.499323C61.6125 0.775355 61.5372 2.23757 60.6934 3.14027C60.5616 3.27829 60.0569 3.68488 59.9212 3.6252C59.4994 3.44615 59.311 2.37187 59.2658 1.8198C59.1855 1.22463 59.2409 0.619202 59.4278 0.0479775C58.2978 -0.228054 56.0377 0.745508 55.4538 1.47289C55.8895 1.7745 56.3083 2.09952 56.7082 2.44647C56.9889 2.74666 57.2294 3.0814 57.4238 3.44242C57.5858 3.71473 57.906 4.40107 57.6047 4.52417C55.8774 5.14082 53.9868 5.14082 52.2595 4.52417C51.9544 4.40107 52.2595 3.71473 52.4404 3.44242C52.6321 3.08072 52.8715 2.74581 53.1523 2.44647C53.5521 2.09952 53.9709 1.7745 54.4066 1.47289C53.8228 0.745508 51.574 -0.228054 50.4326 0.0479775C50.6215 0.618813 50.6768 1.22467 50.5946 1.8198C50.5494 2.37187 50.3611 3.44615 49.9392 3.6252C49.8036 3.68488 49.2988 3.27829 49.167 3.14027C48.3232 2.23757 48.2479 0.775355 48.1876 0.499323C46.9559 0.797736 45.4303 2.73742 45.2683 4.25186C48.0633 4.25186 48.7903 7.56798 54.9302 7.56798C61.0701 7.56798 61.7971 4.25186 64.5921 4.25186C64.4301 2.7598 62.9046 0.797736 61.6728 0.499323Z" fill="#009974"/>
</svg>
